<svg xmlns="http://www.w3.org/2000/svg" viewBox="0 0 400 400" fill="none">
  <title>Agentic AI For Good — Hex Network</title>
  <rect width="400" height="400" rx="48" fill="#F5F1EB"/>
  <g transform="translate(200 200)" stroke-linejoin="round">
    <polygon points="0,-100 86,-50 86,50 0,100 -86,50 -86,-50" fill="none" stroke="#1A1A1A" stroke-width="5" opacity="0.18"/>
    <polygon points="0,-60 52,-30 52,30 0,60 -52,30 -52,-30" fill="#D4754E"/>
    <polygon points="0,-40 35,-20 35,20 0,40 -35,20 -35,-20" fill="#F5F1EB"/>
    <line x1="0" y1="-100" x2="0" y2="-60" stroke="#1A1A1A" stroke-width="4"/>
    <line x1="86" y1="-50" x2="52" y2="-30" stroke="#1A1A1A" stroke-width="4"/>
    <line x1="86" y1="50" x2="52" y2="30" stroke="#1A1A1A" stroke-width="4"/>
    <line x1="0" y1="100" x2="0" y2="60" stroke="#1A1A1A" stroke-width="4"/>
    <line x1="-86" y1="50" x2="-52" y2="30" stroke="#1A1A1A" stroke-width="4"/>
    <line x1="-86" y1="-50" x2="-52" y2="-30" stroke="#1A1A1A" stroke-width="4"/>
    <circle cx="0" cy="-100" r="8" fill="#1A1A1A"/>
    <circle cx="86" cy="-50" r="8" fill="#1A1A1A"/>
    <circle cx="86" cy="50" r="8" fill="#1A1A1A"/>
    <circle cx="0" cy="100" r="8" fill="#1A1A1A"/>
    <circle cx="-86" cy="50" r="8" fill="#1A1A1A"/>
    <circle cx="-86" cy="-50" r="8" fill="#1A1A1A"/>
    <path d="M-20 20 L0 -24 L20 20 M-12 6 L12 6" stroke="#1A1A1A" stroke-width="5" stroke-linecap="round" fill="none"/>
  </g>
  <text x="200" y="350" font-family="Inter, system-ui, sans-serif" font-size="22" font-weight="700" fill="#1A1A1A" text-anchor="middle" letter-spacing="1.5">AGENTIC AI FOR GOOD</text>
</svg>
