<svg xmlns="http://www.w3.org/2000/svg" viewBox="0 0 400 400" fill="none">
  <title>Agentic AI For Good — Sprout Agent</title>
  <rect width="400" height="400" rx="48" fill="#F5F1EB"/>
  <g transform="translate(200 215)">
    <rect x="-70" y="50" width="140" height="12" rx="6" fill="#1A1A1A" opacity="0.9"/>
    <rect x="-70" y="62" width="140" height="8" rx="4" fill="#1A1A1A" opacity="0.25"/>
    <circle cx="-50" cy="56" r="3" fill="#F5F1EB"/>
    <circle cx="-20" cy="56" r="3" fill="#F5F1EB"/>
    <circle cx="10" cy="56" r="3" fill="#F5F1EB"/>
    <circle cx="40" cy="56" r="3" fill="#F5F1EB"/>
    <path d="M0 50 L0 -40" stroke="#1A1A1A" stroke-width="5" stroke-linecap="round"/>
    <path d="M0 -10 C-40 -18 -60 -50 -50 -80 C-20 -70 -2 -40 0 -12"
          fill="#D4754E"/>
    <path d="M0 -10 C-38 -20 -54 -46 -48 -74" stroke="#F5F1EB" stroke-width="3" stroke-linecap="round" fill="none"/>
    <path d="M0 -30 C40 -40 66 -70 58 -108 C22 -102 -2 -62 0 -32"
          fill="#D4754E"/>
    <path d="M0 -30 C38 -40 60 -66 56 -98" stroke="#F5F1EB" stroke-width="3" stroke-linecap="round" fill="none"/>
    <circle cx="0" cy="-120" r="10" fill="#1A1A1A"/>
    <path d="M-4 -122 L4 -118 M-4 -118 L4 -122" stroke="#F5F1EB" stroke-width="2" stroke-linecap="round"/>
  </g>
  <text x="200" y="350" font-family="Inter, system-ui, sans-serif" font-size="22" font-weight="700" fill="#1A1A1A" text-anchor="middle" letter-spacing="1.5">AGENTIC AI FOR GOOD</text>
</svg>
